<svg width="500" height="500" viewBox="0 0 500 500" xmlns="http://www.w3.org/2000/svg">
  <g fill="#000000">
    <path d="M250,60 L290,115 L350,130 L300,175 L310,235 L250,210 L190,235 L200,175 L150,130 L210,115 Z" />
    <path d="M120,280 L150,315 L190,325 L155,350 L160,390 L120,370 L80,390 L85,350 L50,325 L90,315 Z" />
    <path d="M380,280 L410,315 L450,325 L415,350 L420,390 L380,370 L340,390 L345,350 L310,325 L350,315 Z" />
  </g>
</svg>

<svg width="300" height="300" xmlns="http://www.w3.org/2000/svg">
  <g fill="#3498db" opacity="0.15">
    <path d="M30,60 Q45,30 60,60 T90,60 T120,60 T150,60 T180,60" stroke="#3498db" stroke-width="5" fill="none"/>
    <circle cx="150" cy="150" r="100" />
    <rect x="50" y="50" width="80" height="80" />
    <polygon points="150,20 180,80 120,80" />
    <path d="M200,150 L250,100 L250,200 Z" />
  </g>
</svg>
